<?xml version="1.0" encoding="utf-8"?>
<!-- Generator: Adobe Illustrator 21.0.0, SVG Export Plug-In . SVG Version: 6.00 Build 0)  -->
<svg version="1.1" id="Layer_1" xmlns="http://www.w3.org/2000/svg" xmlns:xlink="http://www.w3.org/1999/xlink" x="0px" y="0px"
	 viewBox="0 0 87.3 17.5" style="enable-background:new 0 0 87.3 17.5;" xml:space="preserve">
<style type="text/css">
	.st0{fill:#0EDC8D;}
</style>
<title>logo</title>
<path class="st0" d="M18.1,17.4h-0.2c-0.1,0-0.3,0-0.4,0c-0.1,0-0.2-0.1-0.3-0.2c-0.1-0.1-0.1-0.3,0-0.4l0.2-0.6
	c0.1-0.4,0.2-0.8,0.3-1c0.1-0.1,0-0.2-0.1-0.3c-0.2-0.2-0.4-0.5-0.4-0.8c-0.1-0.3-0.1-0.6,0-0.9c0.1-0.3,0.2-0.5,0.5-0.7
	c0.1-0.1,0.1-0.2,0.1-0.3V5.7c0-0.1,0-0.2,0-0.2c0,0-0.1,0-0.2,0L12,7.2l-1.1,0.4c-0.3,0.1-0.7,0.1-1,0C7.8,6.9,6.2,6.4,5.1,6
	C3.3,5.3,1.7,4.7,0.3,4.2C0.3,4.2,0.2,4.1,0.1,4C0.1,4,0,3.8,0.1,3.7c0-0.1,0-0.2,0.1-0.3c0.1-0.1,0.1-0.1,0.2-0.1
	c1-0.4,2.4-0.9,4.3-1.5l1.7-0.6C6.9,1,7.6,0.8,8.6,0.5l1-0.3c0.6-0.2,1.3-0.2,1.9,0c1.9,0.6,3.4,1.1,4.5,1.5
	c1.7,0.6,3.2,1.2,4.5,1.8h0.1C20.9,3.5,21,3.8,21,4c0,0.1,0,0.2-0.1,0.3c-0.1,0.1-0.2,0.1-0.3,0.1c-1,0.3-1.7,0.6-2.1,0.7
	c-0.1,0-0.1,0.1-0.1,0.1c0,0.1,0,0.1,0,0.2v6.7c0,0.1,0,0.2,0.1,0.2c0.3,0.2,0.5,0.4,0.6,0.7c0.1,0.3,0.1,0.7,0.1,1
	c-0.1,0.3-0.2,0.6-0.5,0.9c0,0-0.1,0.1-0.1,0.1c0,0.1,0,0.1,0,0.2l0.4,1.5c0.1,0.5,0,0.7-0.4,0.7L18.1,17.4z M3.7,7.9V7.5
	c0-0.4,0-0.7,0-0.9c0-0.1,0-0.1,0-0.2c0,0,0.1,0,0.2,0c1.7,0.7,3,1.1,4,1.4l2.2,0.7c0.2,0.1,0.4,0.1,0.6,0c0.2,0,0.4-0.1,0.6-0.2
	c0.8-0.2,1.8-0.6,3.3-1.1l2.4-0.8c0.1,0,0.2,0,0.3,0c0,0.1,0,0.2,0,0.3v2.3c0,0.5-0.1,1-0.4,1.3c-0.4,0.5-0.9,0.9-1.5,1.1
	c-1.1,0.5-2.3,0.7-3.5,0.8c-1.3,0.1-2.6,0.1-3.8-0.2c-1-0.1-2-0.5-2.8-1c-0.4-0.2-0.7-0.5-1-0.9C3.9,10,3.7,9.6,3.7,9.1V7.9z"/>
</svg>
